<?xml version="1.0"?>
<svg width="640" height="480" xmlns="http://www.w3.org/2000/svg" xmlns:svg="http://www.w3.org/2000/svg">
 <!-- Created with SVG-edit - http://svg-edit.googlecode.com/ -->
 <g>
  <title>Layer 1</title>
  <line id="svg_3" y2="260" x2="72" y1="146" x1="44" stroke-linecap="null" stroke-linejoin="null" stroke-dasharray="null" stroke-width="5" stroke="#000000" fill="none"/>
  <line transform="rotate(7.969610214233398 121.50000000000018,155.00000000000003) " id="svg_4" y2="157" x2="188" y1="153" x1="55" stroke-linecap="null" stroke-linejoin="null" stroke-dasharray="null" stroke-width="5" stroke="#000000" fill="none"/>
  <line id="svg_5" y2="265" x2="142" y1="170" x1="186" stroke-linecap="null" stroke-linejoin="null" stroke-dasharray="null" stroke-width="5" stroke="#000000" fill="none"/>
  <line id="svg_6" y2="268" x2="141" y1="270" x1="81" stroke-linecap="null" stroke-linejoin="null" stroke-dasharray="null" stroke-width="5" stroke="#000000" fill="none"/>
  <line id="svg_7" y2="383" x2="111" y1="76" x1="110" stroke-linecap="null" stroke-linejoin="null" stroke-dasharray="null" stroke-width="5" stroke="#000000" fill="none"/>
  <path d="m308,116c0,1.433167 0,2.104164 0,2.875168c0,1.291496 -0.001007,2.212852 0.004486,2.691002c0.011444,0.996399 0.018097,1.517189 0.080841,2.605827c0.066986,1.162254 0.123383,1.772171 0.276337,3.033333c0.078369,0.646179 0.171997,1.296013 0.285004,1.944008c0.224182,1.285522 0.514008,2.518936 0.674652,3.107834c0.15686,0.575119 0.503601,1.681625 0.67868,2.222c0.346466,1.069275 0.548828,1.594589 0.978333,3.242325c0.14624,0.561035 0.275848,1.132782 0.480011,2.299332c0.102997,0.588501 0.209473,1.18071 0.375,2.979172c0.055145,0.599182 0.086639,1.199814 0.141327,2.399994c0.027344,0.599915 0.038727,1.200653 0.109344,2.400009c0.070709,1.20076 0.129944,1.800674 0.268646,2.995499c0.069,0.594269 0.151093,1.183197 0.294678,2.347336c0.070496,0.571594 0.197052,1.689697 0.268646,2.771835c0.069397,1.048676 0.078705,1.564789 0.136688,2.580826c0.028717,0.503326 0.161377,2.005386 0.233978,2.503174c0.144836,0.992996 0.348633,1.968216 0.475006,2.444168c0.371704,1.399765 0.719299,2.272491 0.886505,2.699997c0.327637,0.837662 0.703522,1.635132 1.018494,2.857162c0.204468,0.793335 0.277771,1.620834 0.348022,2.472c0.036469,0.442093 0.144348,1.862228 0.269318,2.894669c0.064728,0.534653 0.216797,1.612396 0.29068,2.146667c0.142853,1.033112 0.273956,1.985321 0.339996,2.82933c0.083923,1.072662 0.083069,1.686661 0.085327,2.973328c0.00119,0.684006 0,1.368011 0,2.641174c0,0.56366 -0.008789,1.444214 0.001343,2.641495c0.005005,0.590714 -0.01767,1.458527 0.220001,2.479843c0.213684,0.918259 0.647675,1.916107 0.721497,2.526001c0.102631,0.848099 0.057159,1.816833 0.057159,2.620819c0,0.822006 0,1.853333 0,2.774673c0,0.684006 0,1.686661 0,2.541672c0,0.944992 0,1.979324 0,2.701996c0,0.714661 0,1.70166 0,2.889328c0,0.748337 0,1.713669 0,2.553665c0,0.996002 0,1.792511 0,2.544006c0,1.118668 0,2.102661 0,2.774673c0,0.743988 0,1.851822 0,2.742828c0,0.908997 0,1.656326 0,2.651825c0,0.800003 0,1.800003 0,2.600006c0,1 0,1.821335 0,2.514328c0,1.128342 0,1.791 0,2.835007c0,0.682663 0,1.881332 0,2.629837c0,0.703491 0,1.706161 0,2.541656c0,0.880508 0.00946,2.079437 -0.010681,2.679169c-0.030243,0.900696 -0.197296,2.103363 -0.346497,2.704498c-0.232544,0.936951 -0.454041,1.578033 -0.742645,2.616837c-0.202637,0.729431 -0.398956,1.47464 -0.542999,2.225998c-0.273041,1.424179 -0.319061,2.085709 -0.346497,2.970001c-0.03537,1.139664 0,1.808716 -0.177338,2.782669c-0.158051,0.868057 -0.344269,1.518555 -0.480682,2.199173c-0.251343,1.253952 -0.331451,2.028366 -0.351318,2.898163c-0.02298,1.006927 -0.020172,1.867142 -0.222687,2.82399c-0.171753,0.811523 -0.475983,1.616058 -0.657166,2.657166c-0.118439,0.680603 -0.092041,1.520721 -0.125977,2.526001c-0.028809,0.85379 -0.201782,1.821198 -0.431519,2.6315c-0.163849,0.57785 -0.557678,1.766144 -0.863983,2.654999c-0.195984,0.568756 -0.46756,1.355774 -0.995514,2.299164c-0.395325,0.70639 -0.686493,1.634705 -0.704498,2.643188c-0.014771,0.827881 0.042572,1.711884 -0.021332,2.417328c-0.089539,0.988586 -0.551636,1.773438 -1.127991,2.328003c-0.747375,0.719116 -1.017334,1.587982 -1.350677,2.421326c-0.333344,0.833344 -0.494659,1.625275 -0.5,2.484009c-0.005371,0.863281 0,1.890656 0,2.837311c0,0.67868 0,1.657166 0,2.477356c0,0.901337 0,1.801331 0,2.742981c0,1.001007 0,1.709015 0,2.453003c0,1.195496 0,1.888 0,2.830688c0,1.007996 0,1.835999 0,2.717316c0,0.708008 0,1.689331 0,2.652008c0,0.773315 0,1.810669 0,2.554657c0,1.107666 0,1.941681 0,2.750671c0,0.899994 0,1.804504 0,2.82132c0,0.67868 0,1.657349 0,2.562683c0,0.941345 -0.399994,1.727386 0.036011,2.669342c0.34726,0.750214 0.89505,1.326538 1.048004,2.049316c0.213165,1.007416 0.555573,1.786682 1.215973,2.640167c0.45752,0.591309 1.174316,1.133759 1.700012,2.090515c0.357239,0.650177 0.609222,1.465393 0.885345,1.983978c0.545837,1.025116 1.093811,1.641022 1.781311,2.516022l0.348022,0.720001l0.701324,0.445313" id="svg_8" stroke-linecap="null" stroke-linejoin="null" stroke-dasharray="null" stroke-width="5" stroke="#000000" fill="none"/>
  <path d="m326,107c0.886658,0 1.825348,0 2.833344,0c0.828003,0 1.709808,0 2.44931,0c0.883514,0 1.884003,0 2.605347,0c0.769348,0 1.594666,0 2.484009,0c1.471161,0 2,0 3.110657,0c0.579834,0 1.174683,0 2.405334,0c1.278656,0 1.933167,0 2.594666,0c0.665497,0 1.99649,0 2.656006,0c0.651489,0 1.291992,0 3.1185,0c0.573486,0 1.681488,0 2.221985,0c0.535522,0 1.603516,0.000648 2.6875,0c1.114685,-0.000671 1.677124,0.002861 2.791687,-0.020836c0.544403,-0.011574 1.591614,-0.023422 2.977478,-0.200829c0.412598,-0.052818 1.548767,-0.30291 2.265015,-0.540001c1.141815,-0.377968 1.967346,-0.721848 2.40451,-0.890999c0.89505,-0.346329 1.788727,-0.696205 2.226654,-0.863335c1.223206,-0.466797 1.950287,-0.723732 2.910675,-1.073334c0.570007,-0.207497 1.788513,-0.736183 2.446655,-0.97467c0.9953,-0.360657 1.831299,-0.424469 2.496002,-0.434662c0.997223,-0.015297 1.793823,-0.001335 2.981323,-0.001335c0.8125,0 1.654999,0 2.580017,0c0.919983,0 1.718323,0.027184 2.600006,-0.071999c0.643494,-0.072388 1.679413,-0.357452 2.401489,-0.633331c0.736237,-0.281288 1.413269,-0.677292 2.709167,-1.051674c0.778412,-0.224884 1.548004,-0.234886 2.685486,-0.243164c0.667023,-0.004852 1.38089,0.01696 2.474518,-0.085167c1.065216,-0.099472 1.72522,-0.268501 2.671997,-0.489334c0.609161,-0.14209 1.807983,-0.361931 2.689819,-0.404495c0.834778,-0.040291 1.836853,-0.020836 2.520844,-0.020836c1.166656,0 1.950745,0.034988 2.738678,-0.036003c0.93335,-0.084091 1.684235,-0.538155 2.570313,-0.915833c0.640747,-0.273109 1.69574,-0.754509 2.19101,-1.048164c0.73111,-0.433495 1.852966,-0.891922 2.666656,-1.166664c0.683594,-0.230812 1.430267,-0.643631 2.437836,-1.133339c0.628815,-0.305611 1.557251,-0.713348 2.343689,-0.995499c0.785797,-0.281921 1.725067,-0.508385 2.530975,-0.704498c1.015839,-0.2472 1.712219,-0.646477 2.720673,-0.87867c0.768616,-0.176971 1.624115,-0.305939 2.389496,-0.695999c0.80127,-0.40834 1.710663,-0.425415 2.610687,-0.425331c0.90033,0.000084 1.624786,0.017265 2.570648,0.286667c0.781006,0.222443 1.64505,0.574081 2.529663,1.034996c0.618317,0.322159 1.242188,0.718643 1.914001,1.140007c1.120453,0.702736 1.952362,1.223175 2.391022,1.486496c0.891998,0.535446 1.335327,0.806366 2.226654,1.282501c1.213928,0.648476 1.962677,0.963997 2.667999,1.269333c0.705322,0.305336 1.835602,0.828957 2.242493,1.042664c0.863251,0.453423 1.737122,0.956535 2.170837,1.206673c0.834229,0.481125 1.907501,1.135895 2.778656,1.568001c0.683746,0.339149 1.71524,0.550056 2.472015,0.707993c0.965485,0.201485 1.564362,0.776077 1.93634,1.517502c0.352875,0.703377 0.647491,1.557495 1.233002,2.290504c0.615814,0.770935 1.208801,1.166061 1.775665,1.619331c0.891754,0.713051 1.490814,1.228714 2.080322,1.762001c0.855194,0.773643 1.637939,1.460243 2.358002,1.984497c0.448944,0.326859 1.163452,0.82737 1.873993,1.564835c0.552948,0.573929 1.067322,1.245865 1.626007,1.877998c0.770599,0.87188 1.507446,1.480507 2.141998,1.998001c0.82666,0.674179 1.212036,1.124496 1.789825,1.839165c0.538025,0.665489 1.369781,1.225441 2.020844,1.854164c0.623688,0.602295 1.020691,1.656998 1.295502,2.271179c0.376038,0.840393 0.609497,1.814255 0.668488,2.610153c0.057373,0.774033 -0.063629,1.832092 0.121338,2.667999c0.18042,0.815338 0.570038,1.43222 1.081329,2.61734c0.322845,0.748322 0.482391,1.155045 0.833344,1.979172c0.34375,0.80719 0.820709,1.861191 1.238342,2.596664c0.461182,0.81218 0.740082,1.78096 0.757172,2.442993c0.028992,1.123642 0.004486,1.791 0.004486,2.501999c0,1.096512 0,2.157333 0,2.813004c0,0.883499 0,2.023163 0,2.857162c0,0.945007 0,1.792999 0,2.656342c0,0.899994 0,1.819336 0,2.652664c0,0.978668 0,1.75267 0,2.657166c0,0.74733 0,1.744171 0,2.578827c0,1.185181 0,1.978668 0,2.754181c0,1.041824 0,1.815155 0,2.77916c0,0.751495 0,1.548004 0,2.546661c0,0.909332 0,1.850677 0,2.645676c0,0.884995 0,1.524994 0,2.559662c0,1.104004 0,1.853333 0,2.594666c0,1.0625 0,2.048004 0,2.67334c0,1.210663 0,2.101669 0,2.668991c0,1.208344 0,2.041672 0,2.875c0,0.938675 0,1.775665 0,2.666672c0,0.904495 0,1.520828 0,2.485336c0,1.037994 0,1.821335 0,2.764664c0,0.556671 0,1.183334 0,1.889999c0,1.693329 0,2.694336 0,3.781326c0,1.149002 0,2.336014 0,3.537003c0,1.19101 0,2.348007 0,3.447006c0,1.927994 0,2.715332 0,3.386673c0,0.569321 0,1.050659 0,1.457993c0,0.347336 0,0.648666 0,1.416672c0,0.790497 0.000336,1.643997 0,2.234665c-0.000671,1.201324 0.014496,1.821487 -0.057159,2.813004c-0.081055,1.121414 -0.225067,1.955276 -0.368164,2.847c-0.073761,0.459641 -0.250946,1.386902 -0.40802,2.771988c-0.099731,0.87944 -0.119263,1.309143 -0.145813,2.145844c-0.025879,0.816086 -0.016846,2.020844 -0.022186,2.820831c-0.005341,0.800034 -0.01416,1.601517 -0.083984,2.399994c-0.105194,1.203262 -0.269043,2.004196 -0.414673,2.820831c-0.149078,0.836029 -0.343781,2.144958 -0.415985,3.061844c-0.036621,0.465118 -0.069763,1.39743 -0.136688,2.307495c-0.093994,1.278137 -0.210907,2.046112 -0.393982,2.748505c-0.177795,0.682175 -0.424957,1.350418 -0.874664,2.38266c-0.320679,0.736084 -0.684021,1.476212 -1.026001,2.225998c-0.493744,1.082504 -0.906952,2.085587 -1.111023,2.710999c-0.276794,0.848206 -0.488464,1.855606 -0.530975,2.766998c-0.043884,0.940353 0.033875,1.726334 -0.046692,2.513351c-0.115479,1.127991 -0.572906,1.727997 -0.842834,2.804474c-0.181702,0.724701 -0.109375,1.331512 -0.454498,2.623505c-0.194122,0.726746 -0.513702,1.438904 -0.815979,2.136017c-0.279327,0.644135 -0.791016,1.829285 -0.848022,2.664001c-0.071686,1.049713 -0.002655,1.595825 -0.002655,2.521332c0,1.033661 0,1.773651 0,2.55365c0,0.820007 0.003906,2.125 -0.001343,3.041016c-0.005341,0.932037 0.001312,1.397552 -0.055817,2.307495c-0.080292,1.278656 -0.210419,2.044495 -0.378845,2.748505c-0.243042,1.01593 -0.564392,2.027863 -0.76532,2.746674c-0.209778,0.750519 -0.417633,1.530914 -0.684021,2.315979c-0.40979,1.207672 -0.76358,1.993835 -0.929321,2.388c-0.3255,0.774048 -0.696014,1.504913 -1.015991,2.925354c-0.144653,0.642151 -0.184326,1.585785 -0.335999,2.485321c-0.152802,0.906219 -0.428314,1.795563 -0.549347,2.399994c-0.239044,1.193939 -0.261627,1.810303 -0.27951,2.757172c-0.019043,1.009308 -0.004486,1.72818 -0.004486,2.863678c0,0.783661 0,1.979156 0,2.779144c0,0.800018 0,1.600006 0,2.400024c0,1.200317 0,2.009003 0,2.841644c0,0.430328 0,1.32901 0,2.801025c0,0.52533 0,1.607971 0,2.157318c0,1.094666 0,1.631989 0,3.157013c0,0.472321 0,1.371002 0,2.221649c0,0.818665 0.005737,2.021576 -0.004486,2.825836c-0.010376,0.816437 -0.023895,1.655396 -0.16217,2.962158c-0.097168,0.918365 -0.184418,1.381744 -0.333344,2.3125c-0.145782,0.911255 -0.259277,1.34671 -0.414673,2.951508c-0.06842,0.706421 -0.079987,1.383972 -0.085327,2.735992c-0.002838,0.714691 0,1.437347 0,2.136017c0,1.197327 0,2.010651 0,3.03067c0,0.681 0,1.487976 0,2.666656c0,0.895508 0,1.479156 0,2.314667c0,1.223663 0,2.023682 0,2.928162c0,0.957184 0,1.857178 0,2.757172c0,0.799988 0,1.700012 0,2.635986c0,0.848022 0,1.711334 0,2.611359c0,0.919312 0,1.752655 0,2.731323c0,0.773987 0,1.674011 0,2.537323c0,0.963165 0,1.884003 0,2.783997c0,0.900024 0,1.800171 0,2.585358c0,0.940002 0,1.947998 0,2.703979l0,0.910675l0,0.899994l0,0.895508" id="svg_9" stroke-linecap="null" stroke-linejoin="null" stroke-dasharray="null" stroke-width="5" stroke="#000000" fill="none"/>
  <path d="m377,169c1.432007,0 2.222656,0 3.197327,0c0.553833,0 1.150665,0 2.46933,0c0.719513,0 1.476013,0 2.26651,0c0.821503,0 1.67099,0 2.545502,0c0.896484,0 1.812012,0 3.687988,0c0.954834,0 1.918671,0 2.890503,0c0.978851,0 1.963684,0 2.953522,0c0.993805,0 1.990662,0 3.989319,0c0.999847,0 1.998657,0 2.995514,0c0.993805,0 1.983643,0 2.968475,0c0.978851,0 1.950684,0 3.869354,0c0.944824,0 1.878662,0 2.800476,0c0.908844,0 1.80368,0 2.683502,0c0.863831,0 1.710693,0 3.349335,0c0.789856,0 1.558685,0 2.305511,0c0.723846,0 1.423676,0 2.098511,0c0.648834,0 1.27066,0 2.429321,0c0.535339,0 1.042664,0 1.523987,0c0.457336,0 0.89267,0 1.308014,0c0.397339,0 0.778656,0 1.501343,0c1.000488,0 1.884003,0 2.833313,0l0.791687,-0.020828" id="svg_10" stroke-linecap="null" stroke-linejoin="null" stroke-dasharray="null" stroke-width="5" stroke="#000000" fill="none"/>
  <path transform="rotate(3.563063383102417 405.75,222.01492309570335) " d="m369,228c0.925323,0 1.694824,0 2.833344,0c0.992004,0 1.548004,0 2.135986,0c1.248016,0 1.895996,0 2.552002,0c1.312012,0 2.594666,0 3.226013,0c0.627319,0 1.252655,0 2.50531,0c0.631348,0 1.914001,0 2.568359,0c1.322662,0 1.982971,0 2.637329,0c0.644318,0 1.886993,0 3.041656,0c1.044006,0 1.528503,0 2.4375,0c0.848999,0 2.0625,0 2.859833,0c0.781342,0 1.53067,0 2.869324,0c0.819,0 1.512024,0 2.533173,0c0.779327,0 1.792084,0.096359 2.552826,-0.057159c0.935547,-0.188782 1.671021,-0.678192 2.44751,-1.264008c0.626678,-0.472794 1.210419,-1.080811 2.221008,-1.436005c0.767914,-0.269913 1.610931,-0.151505 2.61084,-0.528168c0.823151,-0.310089 1.505157,-0.83078 2.271973,-1.12532c0.620483,-0.238342 1.354675,-0.474625 2.659851,-0.910675c0.486816,-0.162643 1.501923,-0.502747 2.01532,-0.678665c1.006531,-0.344894 2.355774,-0.829239 3.083496,-1.11467c0.62674,-0.245819 1.483002,-0.606415 2.437347,-0.88533c0.749054,-0.218918 1.595428,-0.399384 2.496002,-0.563995c0.459412,-0.083984 1.836365,-0.280441 2.720001,-0.352005c0.85788,-0.069473 1.710114,-0.098526 2.567993,-0.167999c0.883636,-0.071564 1.798676,-0.185867 2.709351,-0.352005c0.87616,-0.159836 1.689758,-0.299667 2.620972,-0.664001c0.869812,-0.340317 1.709381,-0.922989 2.391022,-1.195496c0.734436,-0.29361 1.661316,-0.537827 2.573334,-0.693832l0.921326,-0.010666" id="svg_11" stroke-linecap="null" stroke-linejoin="null" stroke-dasharray="null" stroke-width="5" stroke="#000000" fill="none"/>
  <path d="m404,182c0.914673,0.286667 1,1.166672 1,2c0,0.978836 0,1.661331 0,2.769333c0,0.751495 0,1.548004 0,2.546661c0,0.909332 0,1.850677 0,2.645676c0,0.884995 0,1.524994 0,2.559662c0,1.104004 0,1.853333 0,2.594666c0,1.0625 0,2.048004 0,2.67334c0,1.210663 0,1.811996 0,2.731491c0,0.964508 0,2.000504 0,2.731842c0,0.74733 0,1.494659 0,2.926331c0,0.677338 0,1.362671 0,2.087997c0,1.233002 0,2.18367 0,2.686508c0,1.025665 0.000031,2.031326 0,2.509155c-0.000092,1.251678 0.024292,2.217407 -0.057159,3.033676c-0.11499,1.152298 -0.296417,1.808792 -0.442841,2.503662c-0.217377,1.031708 -0.406799,1.95459 -0.463989,2.738663c-0.068726,0.942139 -0.036011,1.945343 -0.036011,2.761337c0,0.815994 0.060516,1.819321 -0.036011,2.689331c-0.113281,1.021088 -0.541077,1.763641 -0.797333,2.643997c-0.225616,0.775055 -0.09317,1.659622 -0.223816,2.571167c-0.144836,1.010696 -0.522675,1.572357 -0.776184,2.595505c-0.192413,0.776596 -0.01712,1.85556 -0.202667,2.58934c-0.220459,0.871857 -0.87265,1.611252 -0.964142,2.510834c-0.079926,0.785706 -0.403687,1.5327 -0.715851,2.415833c-0.297852,0.842667 -0.283997,1.805328 -0.283997,2.658661c0,0.940002 0,1.825333 0,2.710663c0,0.771835 0,1.716003 0,2.710175c0,0.74733 0,1.768494 0,2.605835c0,0.965317 0.025604,1.798996 -0.000153,2.777481c-0.017975,0.683228 -0.224579,1.56308 -0.499847,2.542023c-0.14917,0.530457 -0.404022,1.795441 -0.5,2.458313c-0.148224,1.023682 -0.473907,1.80481 -0.716003,2.62085c-0.29068,0.979797 -0.229401,1.786011 -0.636658,2.642822c-0.38501,0.810028 -0.619415,1.557587 -0.647339,2.457184c-0.029297,0.944092 -0.716003,1.384003 -1,2.299988l0,0.799988l0,0.900024l0,0.899994" id="svg_12" stroke-linecap="null" stroke-linejoin="null" stroke-dasharray="null" stroke-width="5" stroke="#000000" fill="none"/>
  <path d="m356,299c0.88266,-0.425323 1.67926,-0.765991 2.686676,-0.915985c0.849731,-0.126495 1.479736,-0.101898 2.835144,-0.305359c0.747467,-0.112213 1.539246,-0.287231 2.397003,-0.425995c0.452484,-0.073212 1.923401,-0.235626 2.447845,-0.268646c1.072815,-0.067505 1.612823,-0.077789 2.670837,-0.136688c0.509338,-0.028351 1.901031,-0.152283 2.695496,-0.299988c1.075317,-0.199921 1.743805,-0.395416 2.78833,-0.526001c0.728851,-0.091125 1.481323,-0.091583 2.594666,-0.205353c1.065796,-0.108917 1.726563,-0.269836 2.67334,-0.490662c0.609161,-0.14209 1.80954,-0.339081 2.689819,-0.425323c0.835724,-0.081879 1.837708,-0.273682 2.479187,-0.5c1.026276,-0.362091 1.794312,-0.497742 2.694336,-0.5c0.863312,-0.002167 1.863159,0.058411 2.647308,-0.352661c0.847931,-0.444489 1.5,-0.646667 2.457184,-0.647339c0.899994,-0.000641 1.647339,0 2.642822,0c0.800018,0 1.799835,0 2.579163,0c0.999329,0 1.819519,0 2.720856,0c0.899994,0 1.815704,0.157104 2.699982,-0.010681c0.945892,-0.179474 1.587402,-0.904297 2.399994,-0.987976c0.895294,-0.092224 1.800018,-0.001343 2.720856,-0.001343c0.963165,0 1.653809,0 2.726501,0c0.919312,0 1.752655,0 2.585999,0c0.919312,0 1.819336,0 2.513977,0c1.027344,0 1.973999,0 2.827332,0c0.942688,0 1.635193,0 2.593353,0c0.981323,0 1.898651,0 2.690338,0c0.94165,0 1.850647,0 2.875,0c0.685486,0 1.523987,0 2.154663,0c1.395996,0 2.137329,0 2.886658,0c0.741333,0 1.80368,0 2.778656,0c0.88501,0 1.925171,0 2.610687,0c0.834656,0 1.835999,0 2.635986,0l0.998688,0l0.76532,0" id="svg_13" stroke-linecap="null" stroke-linejoin="null" stroke-dasharray="null" stroke-width="5" stroke="#000000" fill="none"/>
  <path d="m424,247c1,0 1.853638,0.224991 2.304504,1.067001c0.378052,0.705978 0.524567,1.287704 1.178162,2.246338c0.458527,0.672516 1.173798,1.525177 1.517334,2.186661c0.430023,0.828018 1.045624,1.464996 1.432007,2.016006c0.62561,0.892166 1.182831,1.482773 1.620667,2.188492c0.423615,0.68277 0.950226,1.460388 1.347321,2.12085c0.604431,1.005341 1.250549,1.574951 1.514679,2.374664c0.283508,0.858429 0.085327,1.799988 0.085327,2.599976c0,0.900024 0.036011,1.800018 0.425323,2.600006l0.489349,0.800018" id="svg_14" stroke-linecap="null" stroke-linejoin="null" stroke-dasharray="null" stroke-width="5" stroke="#000000" fill="none"/>
  <path d="m346,340c0.898682,0 1.484009,0 2.872009,0c0.610657,0 1.285309,0 2.015991,0c0.778656,0 1.597321,0 2.447998,0c0.874664,0 2.664001,0 3.563995,0c0.899994,0 1.800018,0 2.700012,0c0.899994,0 1.799988,0 2.699982,0c0.900024,0 2.700012,0 3.600342,0c0.902344,0 1.808685,0 2.721008,0c0.920319,0 1.850647,0 2.792999,0c0.956329,0 2.919006,0 3.928162,0c1.02417,0 2.05835,0 3.097504,0c1.039154,0 2.073334,0 3.097504,0c1.009155,0 2.962494,0 3.897491,0c0.904999,0 1.779999,0 2.625,0c0.815002,0 1.600006,0 2.355011,0c0.725006,0 2.084991,0 2.72049,0c0.60849,0 1.192993,0 1.7565,0c0.545502,0 1.075989,0 1.594513,0c0.509491,0 1.513489,0 2.013153,0c0.497681,0 0.991333,0 1.479004,0c0.479675,0 0.949341,0 1.850677,0c1.227325,0 1.947327,0 2.877319,0c0.959991,0 1.772491,0 2.777344,0c0.690643,0 1.763336,0 2.682648,0c0.669342,0 1.833344,0 2.633331,0c0.800018,0 1.805481,0.050018 2.600006,-0.057159c0.809174,-0.109161 1.572266,-0.461578 2.578339,-0.821503c0.849487,-0.303925 1.344849,-1.027405 2.207001,-1.110657c0.925079,-0.089355 1.814667,-0.010681 2.571838,-0.010681c0.899994,0 1.647339,0 2.644165,0c0.834656,0 2.019989,0 2.824005,0c0.549316,0 1.852997,0 2.527985,0c1.080017,0 1.767517,0 2.789337,0c0.708008,0 1.689331,0 2.643005,0c0.914337,0 1.815186,0.037201 2.614319,0c0.917664,-0.042725 1.530365,-0.845734 2.283356,-1.020844c0.687469,-0.159851 1.57019,-0.396545 2.556671,-0.840485c0.681396,-0.306641 1.325592,-0.625366 2.306641,-1.253326c0.707703,-0.453003 1.586151,-1.011505 2.314667,-1.274689c0.780762,-0.282074 1.817017,-0.489319 2.492004,-0.585327l1.080017,-0.191986l0.645813,-0.333344" id="svg_15" stroke-linecap="null" stroke-linejoin="null" stroke-dasharray="null" stroke-width="5" stroke="#000000" fill="none"/>
 </g>
</svg>